<svg xmlns="http://www.w3.org/2000/svg" width="883" height="250" viewBox="0 0 883 250">
  <g id="Group_9" data-name="Group 9" transform="translate(-2110 -2054)">
    <g id="Union_1" data-name="Union 1" transform="translate(2351.119 2054)" fill="none" stroke-linejoin="round">
      <path d="M44.906,250a8,8,0,0,1-8-8V164.5L8.881,125.8,36.906,85.6V8a8,8,0,0,1,8-8H633.882a8,8,0,0,1,8,8V242a8,8,0,0,1-8,8Z" stroke="none"/>
      <path d="M 633.8817138671875 248.0001831054688 C 637.1896362304688 248.0001831054688 639.8809204101563 245.3085174560547 639.8809204101563 242.0001068115234 L 639.8809204101563 8.000106811523438 C 639.8809204101563 4.691689968109131 637.1896362304688 2.000023365020752 633.8817138671875 2.000023365020752 L 44.90640640258789 2.000023365020752 C 41.59798812866211 2.000023365020752 38.90632247924805 4.691689968109131 38.90632247924805 8.000106811523438 L 38.90632247924805 85.60385894775391 C 38.90632247924805 86.012939453125 38.78090667724609 86.41219329833984 38.54690551757813 86.74777221679688 L 11.33470821380615 125.7747039794922 L 38.52624130249023 163.3251037597656 C 38.77332305908203 163.6662750244141 38.90632247924805 164.0768585205078 38.90632247924805 164.4981079101563 L 38.90632247924805 242.0001068115234 C 38.90632247924805 245.3085174560547 41.59798812866211 248.0001831054688 44.90640640258789 248.0001831054688 L 633.8817138671875 248.0001831054688 M 633.8817138671875 250.0001831054688 L 44.90640640258789 250.0001831054688 C 40.48832321166992 250.0001831054688 36.90632247924805 246.4191131591797 36.90632247924805 242.0001068115234 L 36.90632247924805 164.4981079101563 L 8.881239891052246 125.7966079711914 L 36.90632247924805 85.60385894775391 L 36.90632247924805 8.000106811523438 C 36.90632247924805 3.58202338218689 40.48832321166992 2.347819099668413e-05 44.90640640258789 2.347819099668413e-05 L 633.8817138671875 2.347819099668413e-05 C 638.2998046875 2.347819099668413e-05 641.8809204101563 3.58202338218689 641.8809204101563 8.000106811523438 L 641.8809204101563 242.0001068115234 C 641.8809204101563 246.4191131591797 638.2998046875 250.0001831054688 633.8817138671875 250.0001831054688 Z" stroke="none" fill="#bbb"/>
    </g>
    <g id="Group_6" data-name="Group 6" transform="translate(0 294)">
      <rect id="Rectangle_5" data-name="Rectangle 5" width="250" height="250" rx="25" transform="translate(2110 1760)" fill="#23599b"/>
      <path id="facebook_2_" data-name="facebook (2)" d="M97.168,36.958h20.32V1.567A262.39,262.39,0,0,0,87.884,0c-29.3,0-49.367,18.428-49.367,52.3V83.469H6.187v39.564h32.33v99.55H78.156V123.042h31.022L114.1,83.478H78.146V56.221c.009-11.435,3.088-19.263,19.022-19.263Z" transform="translate(2203.796 1787.417)" fill="#fff"/>
    </g>
    <text id="_80k" data-name="80k" transform="translate(2591 2221)" fill="#bbb" font-size="120" font-family="Roboto-Regular, Roboto"><tspan x="0" y="0">80k</tspan></text>
  </g>
</svg>
