<svg xmlns="http://www.w3.org/2000/svg" width="883" height="250" viewBox="0 0 883 250">
  <g id="Group_11" data-name="Group 11" transform="translate(-2110 -2363)">
    <g id="Group_7" data-name="Group 7" transform="translate(-401 603)">
      <rect id="Rectangle_6" data-name="Rectangle 6" width="250" height="250" rx="25" transform="translate(2511 1760)" fill="#00aef1"/>
      <g id="twitter_1_" data-name="twitter (1)" transform="translate(2548.661 1766.037)">
        <g id="Group_1" data-name="Group 1" transform="translate(0 48)">
          <path id="Path_9" data-name="Path 9" d="M174.677,64.8a74.661,74.661,0,0,1-20.634,5.655A35.609,35.609,0,0,0,169.8,50.664a71.565,71.565,0,0,1-22.708,8.668A35.808,35.808,0,0,0,85.144,83.82a36.873,36.873,0,0,0,.83,8.166A101.362,101.362,0,0,1,12.162,54.529a35.82,35.82,0,0,0,11,47.862A35.365,35.365,0,0,1,6.987,97.98v.393a35.975,35.975,0,0,0,28.691,35.187,35.742,35.742,0,0,1-9.389,1.179,31.664,31.664,0,0,1-6.78-.611,36.151,36.151,0,0,0,33.462,24.946,71.954,71.954,0,0,1-44.4,15.273A67.07,67.07,0,0,1,0,173.855a100.816,100.816,0,0,0,54.936,16.07c65.9,0,101.924-54.587,101.924-101.9,0-1.583-.055-3.111-.131-4.629A71.439,71.439,0,0,0,174.677,64.8Z" transform="translate(0 -48)" fill="#fff"/>
        </g>
      </g>
    </g>
    <g id="Union_2" data-name="Union 2" transform="translate(2351.119 2363)" fill="none" stroke-linejoin="round">
      <path d="M50.348,250a8,8,0,0,1-8-8V164.5L8.881,125.8,42.349,85.6V8a8,8,0,0,1,8-8H633.881a8,8,0,0,1,8,8V242a8,8,0,0,1-8,8Z" stroke="none"/>
      <path d="M 633.8807983398438 248.0001831054688 C 637.1892700195313 248.0001831054688 639.8809204101563 245.3085174560547 639.8809204101563 242.0001068115234 L 639.8809204101563 8.000106811523438 C 639.8809204101563 4.691689968109131 637.1892700195313 2.000023365020752 633.8807983398438 2.000023365020752 L 50.34782409667969 2.000023365020752 C 47.03982162475586 2.000023365020752 44.34857177734375 4.691689968109131 44.34857177734375 8.000106811523438 L 44.34857177734375 85.60186004638672 C 44.34857177734375 86.06944274902344 44.18473815917969 86.52227020263672 43.88557434082031 86.88160705566406 L 11.50413703918457 125.7721786499023 L 43.86140823364258 163.1918640136719 C 44.17565536499023 163.5552673339844 44.34857177734375 164.0196075439453 44.34857177734375 164.5000305175781 L 44.34857177734375 242.0001068115234 C 44.34857177734375 245.3085174560547 47.03982162475586 248.0001831054688 50.34782409667969 248.0001831054688 L 633.8807983398438 248.0001831054688 M 633.8807983398438 250.0001831054688 L 50.34782409667969 250.0001831054688 C 45.92974090576172 250.0001831054688 42.34857177734375 246.4191131591797 42.34857177734375 242.0001068115234 L 42.34857177734375 164.5000305175781 L 8.881239891052246 125.7966079711914 L 42.34857177734375 85.60186004638672 L 42.34857177734375 8.000106811523438 C 42.34857177734375 3.58202338218689 45.92974090576172 2.347819099668413e-05 50.34782409667969 2.347819099668413e-05 L 633.8807983398438 2.347819099668413e-05 C 638.2998046875 2.347819099668413e-05 641.8809204101563 3.58202338218689 641.8809204101563 8.000106811523438 L 641.8809204101563 242.0001068115234 C 641.8809204101563 246.4191131591797 638.2998046875 250.0001831054688 633.8807983398438 250.0001831054688 Z" stroke="none" fill="#bbb"/>
    </g>
    <text id="_450" data-name="450" transform="translate(2583 2530)" fill="#bbb" font-size="120" font-family="Roboto-Regular, Roboto"><tspan x="0" y="0">450</tspan></text>
  </g>
</svg>
