<svg xmlns="http://www.w3.org/2000/svg" width="883" height="250" viewBox="0 0 883 250">
  <g id="Group_10" data-name="Group 10" transform="translate(-2110 -2672)">
    <g id="Group_8" data-name="Group 8" transform="translate(-743 912)">
      <rect id="Rectangle_7" data-name="Rectangle 7" width="250" height="250" rx="25" transform="translate(2853 1760)" fill="#fc4a35"/>
      <g id="google-plus" transform="translate(2878.08 1818.05)">
        <path id="Path_17" data-name="Path 17" d="M53.8,9H35.586V27.127H17.459v18.21H35.586V63.465H53.8V45.338H71.924V27.127H53.8Z" transform="translate(127.917 32.97)" fill="#fff"/>
        <path id="Path_18" data-name="Path 18" d="M62.45,129.4c36.038,0,59.977-25.3,59.977-61a53.361,53.361,0,0,0-1.016-10.392H62.459V79.474H97.905c-1.449,9.118-10.733,26.92-35.447,26.92-21.291,0-38.678-17.636-38.678-39.444S41.159,27.5,62.459,27.5a35.084,35.084,0,0,1,24.88,9.626l16.953-16.27A59.722,59.722,0,0,0,62.45,4.5a62.45,62.45,0,0,0,0,124.9Z" transform="translate(0 0)" fill="#fff"/>
      </g>
    </g>
    <g id="Union_3" data-name="Union 3" transform="translate(2351.119 2672)" fill="none" stroke-linejoin="round">
      <path d="M50.348,250a8,8,0,0,1-8-8V164.5L8.881,125.8,42.349,85.6V8a8,8,0,0,1,8-8H633.881a8,8,0,0,1,8,8V242a8,8,0,0,1-8,8Z" stroke="none"/>
      <path d="M 633.8807983398438 248.0001831054688 C 637.1892700195313 248.0001831054688 639.8809204101563 245.3085174560547 639.8809204101563 242.0001068115234 L 639.8809204101563 8.000106811523438 C 639.8809204101563 4.691689968109131 637.1892700195313 2.000023365020752 633.8807983398438 2.000023365020752 L 50.34782409667969 2.000023365020752 C 47.03982162475586 2.000023365020752 44.34857177734375 4.691689968109131 44.34857177734375 8.000106811523438 L 44.34857177734375 85.60186004638672 C 44.34857177734375 86.06944274902344 44.18473815917969 86.52227020263672 43.88557434082031 86.88160705566406 L 11.50413703918457 125.7721786499023 L 43.86140823364258 163.1918640136719 C 44.17565536499023 163.5552673339844 44.34857177734375 164.0196075439453 44.34857177734375 164.5000305175781 L 44.34857177734375 242.0001068115234 C 44.34857177734375 245.3085174560547 47.03982162475586 248.0001831054688 50.34782409667969 248.0001831054688 L 633.8807983398438 248.0001831054688 M 633.8807983398438 250.0001831054688 L 50.34782409667969 250.0001831054688 C 45.92974090576172 250.0001831054688 42.34857177734375 246.4191131591797 42.34857177734375 242.0001068115234 L 42.34857177734375 164.5000305175781 L 8.881239891052246 125.7966079711914 L 42.34857177734375 85.60186004638672 L 42.34857177734375 8.000106811523438 C 42.34857177734375 3.58202338218689 45.92974090576172 2.347819099668413e-05 50.34782409667969 2.347819099668413e-05 L 633.8807983398438 2.347819099668413e-05 C 638.2988891601563 2.347819099668413e-05 641.8809204101563 3.58202338218689 641.8809204101563 8.000106811523438 L 641.8809204101563 242.0001068115234 C 641.8809204101563 246.4191131591797 638.2988891601563 250.0001831054688 633.8807983398438 250.0001831054688 Z" stroke="none" fill="#bbb"/>
    </g>
    <text id="_1900" data-name="1900" transform="translate(2552 2839)" fill="#bbb" font-size="120" font-family="Roboto-Regular, Roboto"><tspan x="0" y="0">1900</tspan></text>
  </g>
</svg>
