<svg xmlns="http://www.w3.org/2000/svg" width="500" height="500" viewBox="0 0 500 500">
  <g id="Group_5" data-name="Group 5" transform="translate(-2573 -699)">
    <g id="twitter_1_" data-name="twitter (1)" transform="translate(2729.113 824.717)">
      <g id="Group_1" data-name="Group 1" transform="translate(0 48)">
        <path id="Path_9" data-name="Path 9" d="M187.774,66.062a80.259,80.259,0,0,1-22.181,6.079,38.279,38.279,0,0,0,16.935-21.277,76.931,76.931,0,0,1-24.411,9.318A38.493,38.493,0,0,0,91.528,86.505a39.638,39.638,0,0,0,.892,8.778A108.961,108.961,0,0,1,13.074,55.018a38.506,38.506,0,0,0,11.83,51.45,38.017,38.017,0,0,1-17.393-4.741v.422a38.672,38.672,0,0,0,30.842,37.825,38.421,38.421,0,0,1-10.093,1.267,34.038,34.038,0,0,1-7.288-.657A38.862,38.862,0,0,0,56.943,167.4,77.349,77.349,0,0,1,9.213,183.82,72.1,72.1,0,0,1,0,183.291a108.375,108.375,0,0,0,59.055,17.275c70.838,0,109.566-58.679,109.566-109.543,0-1.7-.059-3.345-.141-4.976A76.8,76.8,0,0,0,187.774,66.062Z" transform="translate(0 -48)" fill="#fff"/>
      </g>
    </g>
    <g id="Ellipse_1" data-name="Ellipse 1" transform="translate(2573 699)" fill="none" stroke="#fff" stroke-width="20">
      <circle cx="250" cy="250" r="250" stroke="none"/>
      <circle cx="250" cy="250" r="240" fill="none"/>
    </g>
  </g>
</svg>
